<svg xmlns="http://www.w3.org/2000/svg" width="78.973" height="82.709" viewBox="0 0 78.973 82.709">
  <g id="_046-abstract_shape" data-name="046-abstract shape" transform="translate(0 0)">
    <path id="Path_130" data-name="Path 130" d="M88.326,87.545H60.945V71.553H71.868a2.213,2.213,0,0,0,2.211-2.211V58.207A2.213,2.213,0,0,0,71.868,56H60.733a2.213,2.213,0,0,0-2.211,2.211V69.13H42.53V42.8a2.213,2.213,0,0,0-2.211-2.211H24.125a1.212,1.212,0,1,0,0,2.423H40.107V69.13H13.987V43.01h4.474a1.212,1.212,0,1,0,0-2.423H13.775A2.213,2.213,0,0,0,11.564,42.8V69.343a2.213,2.213,0,0,0,2.211,2.211H40.107V87.545H23.9a2.213,2.213,0,0,0-2.211,2.211v16.416a2.213,2.213,0,0,0,2.211,2.211H40.32a2.213,2.213,0,0,0,2.211-2.211v-16.2H58.522v16.2a2.213,2.213,0,0,0,2.211,2.211h3.258a1.212,1.212,0,0,0,0-2.423H60.945V89.968H88.114V105.96H69.674a1.212,1.212,0,1,0,0,2.423H88.326a2.213,2.213,0,0,0,2.211-2.211V89.756A2.214,2.214,0,0,0,88.326,87.545ZM60.945,58.42h10.71V69.13H60.945ZM40.107,105.96H24.115V89.968H40.107ZM42.53,71.553H58.522V87.545H42.53Z" transform="translate(-11.564 -34.031)" fill="#ddd5c9"/>
    <path id="Path_131" data-name="Path 131" d="M385.764,11.263H392.6a2.213,2.213,0,0,0,2.211-2.211V2.211A2.214,2.214,0,0,0,392.6,0h-6.841a2.213,2.213,0,0,0-2.211,2.211V9.052A2.213,2.213,0,0,0,385.764,11.263Zm.212-8.84h6.416V8.84h-6.416Z" transform="translate(-323.462 0)" fill="#ddd5c9"/>
    <path id="Path_132" data-name="Path 132" d="M22.9,497H12.777a1.212,1.212,0,1,0,0,2.423H22.9a1.212,1.212,0,1,0,0-2.423Z" transform="translate(-11.565 -416.714)" fill="#ddd5c9"/>
    <path id="Path_133" data-name="Path 133" d="M447.409,218.22a1.212,1.212,0,0,0,1.212,1.212h6.143a1.212,1.212,0,1,0,0-2.423h-6.143A1.212,1.212,0,0,0,447.409,218.22Z" transform="translate(-377.002 -181.952)" fill="#ddd5c9"/>
  </g>
</svg>
