<svg id="_047-abstract_shape" data-name="047-abstract shape" xmlns="http://www.w3.org/2000/svg" width="82.705" height="79.79" viewBox="0 0 82.705 79.79">
  <path id="Path_134" data-name="Path 134" d="M80.9,49.385a11.583,11.583,0,0,0-8.322-5.312L61.992,42.7a9.623,9.623,0,0,0-1.745-.067,18.916,18.916,0,0,0-1.714-5.106,9.613,9.613,0,0,0,1.418-1.108l7.759-7.338A11.616,11.616,0,1,0,49.236,15.656L44.655,25.3a9.611,9.611,0,0,0-.644,1.8,19.6,19.6,0,0,0-5.317,0,9.623,9.623,0,0,0-.643-1.8l-4.581-9.647A11.616,11.616,0,1,0,15,29.078l7.759,7.338a9.633,9.633,0,0,0,1.418,1.108,18.914,18.914,0,0,0-1.714,5.105,9.623,9.623,0,0,0-1.745.067l-10.59,1.376A11.617,11.617,0,0,0,5.71,65.594a1.212,1.212,0,0,0,1.23-2.088,9.193,9.193,0,0,1,3.5-17.03L21.026,45.1A7.195,7.195,0,0,1,25.4,58.551L16.02,63.663a9.081,9.081,0,0,1-4.234,1.125,1.212,1.212,0,0,0,.02,2.423h.021a11.48,11.48,0,0,0,5.354-1.42l9.377-5.112a9.625,9.625,0,0,0,1.308-.86A19.049,19.049,0,0,0,32.3,63.087a9.634,9.634,0,0,0-.4,1.473l-1.964,10.5a11.616,11.616,0,1,0,22.836,0l-1.964-10.5a9.628,9.628,0,0,0-.4-1.473,19.045,19.045,0,0,0,4.436-3.268,9.637,9.637,0,0,0,1.308.86l9.377,5.112A11.616,11.616,0,0,0,80.9,49.385Zm-29.48-32.69A9.193,9.193,0,1,1,66.045,27.318l-7.759,7.338a7.195,7.195,0,0,1-11.442-8.314ZM16.66,27.317A9.193,9.193,0,1,1,31.281,16.695l4.581,9.647a7.195,7.195,0,0,1-11.442,8.314ZM48.425,83.066A9.193,9.193,0,0,1,32.316,75.5l1.964-10.5a7.194,7.194,0,0,1,14.144,0l1.964,10.5a9.165,9.165,0,0,1-1.963,7.563ZM41.353,56.711A9.62,9.62,0,0,0,33.4,60.927,16.648,16.648,0,0,1,29.572,58.1a9.615,9.615,0,0,0-4.729-15.038,16.521,16.521,0,0,1,1.519-4.5,9.613,9.613,0,0,0,12.616-9.052,17.159,17.159,0,0,1,4.75,0,9.614,9.614,0,0,0,12.616,9.052,16.52,16.52,0,0,1,1.519,4.5A9.615,9.615,0,0,0,53.133,58.1a16.648,16.648,0,0,1-3.826,2.827A9.62,9.62,0,0,0,41.353,56.711Zm38.476,1.721a9.193,9.193,0,0,1-13.143,5.231l-9.377-5.112A7.195,7.195,0,0,1,61.679,45.1L72.27,46.476a9.193,9.193,0,0,1,7.559,11.957Z" transform="translate(0 -9.02)" fill="#ddd5c9"/>
  <path id="Path_135" data-name="Path 135" d="M221.574,197.74a6.631,6.631,0,0,0-3.484,12.272,1.212,1.212,0,0,0,1.275-2.061,4.207,4.207,0,1,1,4.266.09,1.212,1.212,0,1,0,1.187,2.113,6.631,6.631,0,0,0-3.243-12.414Z" transform="translate(-180.222 -167.254)" fill="#ddd5c9"/>
  <path id="Path_136" data-name="Path 136" d="M236.747,23.051c1.326,0,2.18-1.375,2.946-4.745a30.794,30.794,0,0,0,.761-5.1,3.707,3.707,0,0,0-7.413,0,30.814,30.814,0,0,0,.761,5.1C234.567,21.676,235.42,23.051,236.747,23.051Zm0-11.133A1.285,1.285,0,0,1,238.03,13.2a29.75,29.75,0,0,1-1.284,6.672,29.749,29.749,0,0,1-1.284-6.672A1.285,1.285,0,0,1,236.747,11.918Z" transform="translate(-195.395 -9.418)" fill="#ddd5c9"/>
  <path id="Path_137" data-name="Path 137" d="M40.521,158.445a30.791,30.791,0,0,0,5.09.854c.75.068,1.411.1,1.99.1,2.081,0,3.112-.452,3.433-1.438.41-1.262-.634-2.5-3.6-4.268a30.8,30.8,0,0,0-4.619-2.3,3.707,3.707,0,1,0-2.291,7.05Zm-.075-3.922a1.281,1.281,0,0,1,1.617-.824,29.751,29.751,0,0,1,5.949,3.282,29.85,29.85,0,0,1-6.742-.841,1.283,1.283,0,0,1-.824-1.618Z" transform="translate(-31.827 -128.242)" fill="#ddd5c9"/>
  <path id="Path_138" data-name="Path 138" d="M121.97,352.488c-1.073-.78-2.572-.169-5.173,2.108a30.8,30.8,0,0,0-3.616,3.682,3.708,3.708,0,0,0,2.991,5.886,3.768,3.768,0,0,0,.588-.046,3.683,3.683,0,0,0,2.419-1.482,30.811,30.811,0,0,0,2.385-4.577C122.926,354.882,123.044,353.268,121.97,352.488Zm-4.751,8.723a1.284,1.284,0,0,1-2.077-1.509,29.746,29.746,0,0,1,4.96-4.643A29.736,29.736,0,0,1,117.219,361.211Z" transform="translate(-94.304 -296.734)" fill="#ddd5c9"/>
  <path id="Path_139" data-name="Path 139" d="M342.141,354.6c-2.6-2.277-4.1-2.888-5.172-2.108s-.956,2.393.406,5.57a30.79,30.79,0,0,0,2.385,4.577,3.682,3.682,0,0,0,2.419,1.482,3.768,3.768,0,0,0,.588.046,3.707,3.707,0,0,0,2.991-5.886A30.833,30.833,0,0,0,342.141,354.6Zm1.885,6.062a1.284,1.284,0,0,1-2.306.554,29.747,29.747,0,0,1-2.883-6.152,29.756,29.756,0,0,1,4.96,4.643A1.275,1.275,0,0,1,344.026,360.657Z" transform="translate(-281.93 -296.734)" fill="#ddd5c9"/>
  <path id="Path_140" data-name="Path 140" d="M392.626,157.963c.321.987,1.352,1.438,3.433,1.438.579,0,1.241-.035,1.99-.1a30.791,30.791,0,0,0,5.09-.854,3.707,3.707,0,1,0-2.291-7.05,30.815,30.815,0,0,0-4.619,2.3C393.259,155.465,392.216,156.7,392.626,157.963ZM401.6,153.7a1.284,1.284,0,1,1,.793,2.442,29.8,29.8,0,0,1-6.742.841A29.745,29.745,0,0,1,401.6,153.7Z" transform="translate(-329.129 -128.241)" fill="#ddd5c9"/>
</svg>
