<svg xmlns="http://www.w3.org/2000/svg" width="601.451" height="217.299" viewBox="0 0 601.451 217.299">
  <g id="Group_739" data-name="Group 739" transform="translate(-79.049 -1638)">
    <g id="Rectangle_458" data-name="Rectangle 458" transform="translate(138 1638)" fill="#fff" stroke="#707070" stroke-width="1" opacity="0">
      <rect width="542" height="217" stroke="none"/>
      <rect x="0.5" y="0.5" width="541" height="216" fill="none"/>
    </g>
    <g id="Group_682" data-name="Group 682" transform="translate(-13.746 1119)">
      <g id="Group_669" data-name="Group 669" transform="translate(133.625 526)">
        <path id="Path_285" data-name="Path 285" d="M4642.313-5588H4902.7v204.944H4342.577" transform="translate(-4342.577 5592.854)" fill="none" stroke="#ddd5c9" stroke-width="1"/>
        <g id="Ellipse_44" data-name="Ellipse 44" transform="translate(295.121)" fill="#e6e5e2" stroke="#ddd5c9" stroke-width="1">
          <circle cx="5" cy="5" r="5" stroke="none"/>
          <circle cx="5" cy="5" r="4.5" fill="none"/>
        </g>
      </g>
    </g>
    <path id="Path_1724" data-name="Path 1724" d="M2075.5,229.544V215.192h24.1v16.184c0,18.016,8.14,29.313,27.027,29.313,18.236,0,26.7-10.076,26.7-29.313V185.268c0-20.153-9.443-28.7-25.073-28.7-14.98,0-24.424,7.328-27.679,23.512v1.832h-24.1l6.512-116.338h90.527v21.68h-68.058l-3.583,65.039c7.49-11.3,19.213-17.4,35.82-17.4,27.028,0,41.03,17.1,41.03,48.55v46.108c0,32.672-16.607,52.825-51.45,52.825-35.821,0-51.776-21.069-51.776-52.825" transform="translate(-1996.448 1572.429)" fill="#ddd5c9"/>
  </g>
</svg>
