<svg xmlns="http://www.w3.org/2000/svg" width="100" height="100" viewBox="0 0 100 100">
  <g id="Group_735" data-name="Group 735" transform="translate(-1070 -710)">
    <circle id="Ellipse_49" data-name="Ellipse 49" cx="50" cy="50" r="50" transform="translate(1070 710)" fill="#e6e5e2"/>
    <g id="tiles" transform="translate(1098.683 738.582)">
      <path id="Path_1750" data-name="Path 1750" d="M40.618,28.645H27.973V15.99a.665.665,0,0,0-.666-.666H14.662V2.668A.665.665,0,0,0,14,2H.674a.665.665,0,0,0-.666.666V42.633a.665.665,0,0,0,.666.666H40.618a.665.665,0,0,0,.666-.666V29.311a.666.666,0,0,0-.666-.666ZM1.34,16.656H13.319V28.645H1.34ZM14.662,29.977H26.631V41.967H14.662Zm11.979-1.332H14.662V16.656H26.641ZM1.34,3.334H13.33V15.324H1.34Zm0,26.643H13.319V41.967H1.34ZM39.952,41.967H27.973V29.977H39.951V41.967Z" transform="translate(0 -0.664)" fill="#6c6c6c"/>
      <path id="Path_1751" data-name="Path 1751" d="M13,5a.665.665,0,0,0-.666.666v8.659H3.674a.666.666,0,1,0,0,1.332H13a.665.665,0,0,0,.666-.666V5.668A.665.665,0,0,0,13,5Z" transform="translate(-1.002 -1.665)" fill="#6c6c6c"/>
      <path id="Path_1752" data-name="Path 1752" d="M13,25a.665.665,0,0,0-.666.666v8.659H3.674a.666.666,0,1,0,0,1.332H13a.665.665,0,0,0,.666-.666V25.668A.665.665,0,0,0,13,25Z" transform="translate(-1.002 -8.344)" fill="#6c6c6c"/>
      <path id="Path_1753" data-name="Path 1753" d="M13,45a.665.665,0,0,0-.666.666v8.659H3.674a.666.666,0,1,0,0,1.332H13a.665.665,0,0,0,.666-.666V45.668A.665.665,0,0,0,13,45Z" transform="translate(-1.002 -15.022)" fill="#6c6c6c"/>
      <path id="Path_1754" data-name="Path 1754" d="M23.674,35.659H33a.665.665,0,0,0,.666-.666V25.668a.666.666,0,1,0-1.332,0v8.659H23.674a.666.666,0,1,0,0,1.332Z" transform="translate(-7.68 -8.344)" fill="#6c6c6c"/>
      <path id="Path_1755" data-name="Path 1755" d="M33,45a.665.665,0,0,0-.666.666v8.659H23.674a.666.666,0,1,0,0,1.332H33a.665.665,0,0,0,.666-.666V45.668A.665.665,0,0,0,33,45Z" transform="translate(-7.68 -15.022)" fill="#6c6c6c"/>
      <path id="Path_1756" data-name="Path 1756" d="M43.674,55.659H53a.665.665,0,0,0,.666-.666V45.668a.666.666,0,0,0-1.332,0v8.659H43.674a.666.666,0,0,0,0,1.332Z" transform="translate(-14.359 -15.022)" fill="#6c6c6c"/>
      <path id="Path_1757" data-name="Path 1757" d="M23.654,4.314H34.311a.666.666,0,1,0,0-1.332H23.654a.666.666,0,0,0,0,1.332Z" transform="translate(-7.673 -0.991)" fill="#6c6c6c"/>
      <path id="Path_1758" data-name="Path 1758" d="M23.654,8.316H34.311a.666.666,0,1,0,0-1.332H23.654a.666.666,0,0,0,0,1.332Z" transform="translate(-7.673 -2.327)" fill="#6c6c6c"/>
      <path id="Path_1759" data-name="Path 1759" d="M23.654,12.318H34.311a.666.666,0,1,0,0-1.332H23.654a.666.666,0,0,0,0,1.332Z" transform="translate(-7.673 -3.664)" fill="#6c6c6c"/>
      <path id="Path_1760" data-name="Path 1760" d="M23.654,16.32H34.311a.666.666,0,1,0,0-1.332H23.654a.666.666,0,0,0,0,1.332Z" transform="translate(-7.673 -5)" fill="#6c6c6c"/>
      <path id="Path_1761" data-name="Path 1761" d="M23.654,20.32H34.311a.666.666,0,1,0,0-1.332H23.654a.666.666,0,0,0,0,1.332Z" transform="translate(-7.673 -6.336)" fill="#6c6c6c"/>
      <path id="Path_1762" data-name="Path 1762" d="M52.816.235c-.494.574-4.824,5.688-4.824,8.431a5.336,5.336,0,0,0,3.664,5.059v2.265H50.99a.666.666,0,0,0,0,1.332h0v5.66s0,0,0,0a2.331,2.331,0,0,0,4.663,0s0,0,0,0v-5.66a.666.666,0,1,0,0-1.332h-.666V13.725a5.338,5.338,0,0,0,3.663-5.059c0-2.744-4.33-7.857-4.824-8.431a.688.688,0,0,0-1.01,0Zm1.5,22.753a1,1,0,0,1-2,0V17.323h2v5.665Zm-.667-7h-.665V13.979c.111.007.22.017.332.017s.222-.01.333-.017Zm-.333-3.328a4,4,0,0,1-4-4c0-1.689,2.543-5.168,4-6.957,1.454,1.788,4,5.267,4,6.957A4,4,0,0,1,53.321,12.663Z" transform="translate(-16.023 0)" fill="#6c6c6c"/>
    </g>
  </g>
</svg>
