<svg xmlns="http://www.w3.org/2000/svg" width="100" height="100" viewBox="0 0 100 100">
  <g id="Group_734" data-name="Group 734" transform="translate(-870 -710)">
    <circle id="Ellipse_48" data-name="Ellipse 48" cx="50" cy="50" r="50" transform="translate(870 710)" fill="#e6e5e2"/>
    <g id="free-delivery" transform="translate(895.028 700.296)">
      <g id="Group_701" data-name="Group 701" transform="translate(0 38.486)">
        <g id="Group_700" data-name="Group 700" transform="translate(0 0)">
          <path id="Path_1741" data-name="Path 1741" d="M46.447,62.722l-1.293-5.173a.782.782,0,0,0,.619-.765V55.95a3.288,3.288,0,0,0-3.284-3.284H36.6v-1.72a1.618,1.618,0,0,0-1.616-1.616H24.028l6.657-2.663a.782.782,0,0,0-.581-1.452l-5.45,2.18a18.381,18.381,0,0,0,3.93-3.059,3.642,3.642,0,0,0-5.792-4.417c-.89,1.167-2.064,4.445-2.824,6.756-.76-2.31-1.934-5.589-2.824-6.756a3.642,3.642,0,0,0-5.792,4.417,18.375,18.375,0,0,0,3.93,3.059l-5.45-2.18a.782.782,0,0,0-.581,1.452l6.657,2.663H4.953a1.618,1.618,0,0,0-1.616,1.616v14.18a.782.782,0,0,0,1.564,0V50.945a.052.052,0,0,1,.052-.052H34.981a.052.052,0,0,1,.052.052v14.18a.782.782,0,1,0,1.564,0v-.886h9.23a2.559,2.559,0,0,1,2.43,1.773H45.825a.782.782,0,0,0-.782.782v1.668a2.453,2.453,0,0,0,2.45,2.45h.886v3.441H46.335a4.951,4.951,0,0,0-9.361,0H36.6V68.462a.782.782,0,1,0-1.564,0v5.891H18.809a4.951,4.951,0,0,0-9.361,0h-4.5A.052.052,0,0,1,4.9,74.3V72.58H8.289a.782.782,0,1,0,0-1.564H.782a.782.782,0,1,0,0,1.564H3.337V74.3a1.618,1.618,0,0,0,1.616,1.616H9.177c0,.017,0,.035,0,.052a4.953,4.953,0,0,0,9.905,0c0-.018,0-.035,0-.052H36.7c0,.017,0,.035,0,.052a4.953,4.953,0,0,0,9.905,0c0-.018,0-.035,0-.052h2.556a.782.782,0,0,0,.782-.782V66.793A4.125,4.125,0,0,0,46.447,62.722ZM16.866,46.541c-3.085-1.917-4-2.8-4.271-3.154a2.078,2.078,0,0,1,3.3-2.52c.756.992,1.941,4.33,2.723,6.736C18.1,47.292,17.488,46.928,16.866,46.541ZM21.311,47.6c.782-2.405,1.967-5.744,2.723-6.736a2.078,2.078,0,0,1,3.3,2.52c-.271.355-1.186,1.237-4.27,3.154C22.446,46.928,21.839,47.292,21.311,47.6ZM36.6,54.229h5.891a1.722,1.722,0,0,1,1.72,1.72V56H36.6Zm0,8.446V57.566h6.949l1.277,5.109ZM14.128,79.357a3.389,3.389,0,1,1,3.389-3.389A3.393,3.393,0,0,1,14.128,79.357Zm27.526,0a3.389,3.389,0,1,1,3.389-3.389A3.393,3.393,0,0,1,41.654,79.357Zm6.725-10.01h-.886a.887.887,0,0,1-.886-.886v-.886h1.773v1.773Z" transform="translate(0 -38.486)" fill="#6c6c6c"/>
        </g>
      </g>
      <g id="Group_703" data-name="Group 703" transform="translate(12.512 74.353)">
        <g id="Group_702" data-name="Group 702">
          <path id="Path_1742" data-name="Path 1742" d="M129.883,406.172a1.616,1.616,0,1,0,1.616,1.616A1.618,1.618,0,0,0,129.883,406.172Z" transform="translate(-128.267 -406.172)" fill="#6c6c6c"/>
        </g>
      </g>
      <g id="Group_705" data-name="Group 705" transform="translate(40.038 74.353)">
        <g id="Group_704" data-name="Group 704">
          <path id="Path_1743" data-name="Path 1743" d="M412.071,406.172a1.616,1.616,0,1,0,1.616,1.616A1.618,1.618,0,0,0,412.071,406.172Z" transform="translate(-410.455 -406.172)" fill="#6c6c6c"/>
        </g>
      </g>
      <g id="Group_707" data-name="Group 707" transform="translate(20.019 71.016)">
        <g id="Group_706" data-name="Group 706" transform="translate(0 0)">
          <path id="Path_1744" data-name="Path 1744" d="M217.687,371.967H206.009a.782.782,0,1,0,0,1.564h11.678a.782.782,0,1,0,0-1.564Z" transform="translate(-205.227 -371.967)" fill="#6c6c6c"/>
        </g>
      </g>
      <g id="Group_709" data-name="Group 709" transform="translate(1.668 67.68)">
        <g id="Group_708" data-name="Group 708" transform="translate(0 0)">
          <path id="Path_1745" data-name="Path 1745" d="M27.894,337.763H17.884a.782.782,0,0,0,0,1.564h10.01a.782.782,0,0,0,0-1.564Z" transform="translate(-17.102 -337.763)" fill="#6c6c6c"/>
        </g>
      </g>
      <g id="Group_711" data-name="Group 711" transform="translate(8.341 56.002)">
        <g id="Group_710" data-name="Group 710">
          <path id="Path_1746" data-name="Path 1746" d="M89.63,218.046H86.293a.782.782,0,0,0-.782.782V225.5a.782.782,0,1,0,1.564,0v-2.555H88.8a.782.782,0,1,0,0-1.564h-1.72V219.61H89.63a.782.782,0,1,0,0-1.564Z" transform="translate(-85.511 -218.046)" fill="#6c6c6c"/>
        </g>
      </g>
      <g id="Group_713" data-name="Group 713" transform="translate(14.18 56.002)">
        <g id="Group_712" data-name="Group 712" transform="translate(0 0)">
          <path id="Path_1747" data-name="Path 1747" d="M149.8,223.313a2.866,2.866,0,0,0-1.566-5.267h-2.085a.782.782,0,0,0-.782.782V225.5a.782.782,0,1,0,1.564,0v-1.72h1.3l1.436,2.154a.782.782,0,1,0,1.3-.867Zm-1.566-1.1h-1.3V219.61h1.3a1.3,1.3,0,0,1,0,2.607Z" transform="translate(-145.369 -218.046)" fill="#6c6c6c"/>
        </g>
      </g>
      <g id="Group_715" data-name="Group 715" transform="translate(20.853 56.002)">
        <g id="Group_714" data-name="Group 714">
          <path id="Path_1748" data-name="Path 1748" d="M217.9,224.719h-2.555v-1.775l.052,0h1.668a.782.782,0,0,0,0-1.564h-1.668l-.052,0V219.61H217.9a.782.782,0,0,0,0-1.564H214.56a.782.782,0,0,0-.782.782V225.5a.782.782,0,0,0,.782.782H217.9a.782.782,0,1,0,0-1.564Z" transform="translate(-213.778 -218.046)" fill="#6c6c6c"/>
        </g>
      </g>
      <g id="Group_717" data-name="Group 717" transform="translate(26.692 56.002)">
        <g id="Group_716" data-name="Group 716">
          <path id="Path_1749" data-name="Path 1749" d="M277.755,224.719H275.2v-1.773h.886a.782.782,0,0,0,0-1.564H275.2V219.61h2.555a.782.782,0,1,0,0-1.564h-3.337a.782.782,0,0,0-.782.782V225.5a.782.782,0,0,0,.782.782h3.337a.782.782,0,1,0,0-1.564Z" transform="translate(-273.636 -218.046)" fill="#6c6c6c"/>
        </g>
      </g>
    </g>
  </g>
</svg>
