<svg xmlns="http://www.w3.org/2000/svg" width="601.211" height="216.298" viewBox="0 0 601.211 216.298">
  <g id="Group_737" data-name="Group 737" transform="translate(-759.288 -1043)">
    <g id="Rectangle_457" data-name="Rectangle 457" transform="translate(818 1043)" fill="#fff" stroke="#707070" stroke-width="1" opacity="0">
      <rect width="542" height="216" stroke="none"/>
      <rect x="0.5" y="0.5" width="541" height="215" fill="none"/>
    </g>
    <g id="Group_679" data-name="Group 679" transform="translate(666.254 523)">
      <g id="Group_669" data-name="Group 669" transform="translate(133.625 526)">
        <path id="Path_285" data-name="Path 285" d="M4582.5-5587.228l320.2-.772v204.944H4342.577" transform="translate(-4342.577 5592.854)" fill="none" stroke="#ddd5c9" stroke-width="1"/>
        <g id="Ellipse_44" data-name="Ellipse 44" transform="translate(235.121)" fill="#e6e5e2" stroke="#ddd5c9" stroke-width="1">
          <circle cx="5" cy="5" r="5" stroke="none"/>
          <circle cx="5" cy="5" r="4.5" fill="none"/>
        </g>
      </g>
    </g>
    <path id="Path_1721" data-name="Path 1721" d="M421.053,220.013c0-35.561,14.586-56.229,40.192-81.456C486.528,113.937,498.2,98.132,498.2,75.641c0-20.365-7.779-31.61-26.255-31.61-19.448,0-26.9,11.854-26.9,29.178V92.358H421.053V74.729c0-30.7,15.234-52.278,51.537-52.278,35.007,0,50.889,21.276,50.889,52.278,0,26.747-13.614,48.023-42.786,76.593C458,173.206,446.012,188.1,446.012,212.111v4.559h74.875v21.58H421.053Z" transform="translate(338.235 1020.549)" fill="#ddd5c9"/>
  </g>
</svg>
