<svg xmlns="http://www.w3.org/2000/svg" width="56" height="56" viewBox="0 0 56 56">
  <g id="Group_605" data-name="Group 605" transform="translate(-161 -1522)">
    <path id="Path_194" data-name="Path 194" d="M47.8,8.2A28,28,0,0,0,8.2,47.8,28,28,0,0,0,47.8,8.2Zm-1.16,38.438A26.359,26.359,0,0,1,9.361,9.361,26.359,26.359,0,0,1,46.639,46.639Z" transform="translate(161 1522)" fill="#a09f9d"/>
    <g id="Group_507" data-name="Group 507" transform="translate(132.104 -63)">
      <path id="Path_276" data-name="Path 276" d="M37.183,240H8.478a.478.478,0,0,0-.478.478v1.435a.478.478,0,0,0,.478.478h.478v12.439a.478.478,0,0,0,.478.478H36.227a.478.478,0,0,0,.478-.478V242.392h.478a.478.478,0,0,0,.478-.478v-1.435A.478.478,0,0,0,37.183,240Zm-21.05,14.352H12.306v-.718a.239.239,0,0,1,.239-.239h3.349a.239.239,0,0,1,.239.239Zm-4.784-8.611v-.957H17.09v.957Zm3.349.957v5.741h-.957V246.7Zm10.047,7.655H20.917v-.718a.239.239,0,0,1,.239-.239h3.349a.239.239,0,0,1,.239.239Zm-4.784-8.611v-.957H25.7v.957Zm3.349.957v5.741h-.957V246.7Zm10.047,7.655H29.529v-.718a.239.239,0,0,1,.239-.239h3.349a.239.239,0,0,1,.239.239Zm-4.784-8.611v-.957h5.741v.957Zm3.349.957v5.741h-.957V246.7Zm3.827,7.655H34.313v-.718a1.2,1.2,0,0,0-1.2-1.2h-.239V246.7h1.914a.478.478,0,0,0,.478-.478v-1.914a.478.478,0,0,0-.478-.478h-6.7a.478.478,0,0,0-.478.478v1.914a.478.478,0,0,0,.478.478h1.914v5.741h-.239a1.2,1.2,0,0,0-1.2,1.2v.718H25.7v-.718a1.2,1.2,0,0,0-1.2-1.2h-.239V246.7H26.18a.478.478,0,0,0,.478-.478v-1.914a.478.478,0,0,0-.478-.478h-6.7a.478.478,0,0,0-.478.478v1.914a.478.478,0,0,0,.478.478H21.4v5.741h-.239a1.2,1.2,0,0,0-1.2,1.2v.718H17.09v-.718a1.2,1.2,0,0,0-1.2-1.2h-.239V246.7h1.914a.478.478,0,0,0,.478-.478v-1.914a.478.478,0,0,0-.478-.478h-6.7a.478.478,0,0,0-.478.478v1.914a.478.478,0,0,0,.478.478h1.914v5.741h-.239a1.2,1.2,0,0,0-1.2,1.2v.718H9.914v-11.96H35.748Zm.957-12.917H8.957v-.478H36.7Z" transform="translate(34.066 1372.396)" fill="#a09f9d"/>
      <path id="Path_277" data-name="Path 277" d="M37.183,16H8.478A.478.478,0,0,0,8,16.478v1.435a.478.478,0,0,0,.478.478h5.263v1.954a2.875,2.875,0,0,0-2.392,2.83v.478a.478.478,0,0,0,.478.478h4.784a.478.478,0,0,0,.478-.478v-.478a2.875,2.875,0,0,0-2.392-2.83V18.392h7.655v1.954a2.875,2.875,0,0,0-2.392,2.83v.478a.478.478,0,0,0,.478.478h4.784a.478.478,0,0,0,.478-.478v-.478a2.875,2.875,0,0,0-2.392-2.83V18.392h7.655v1.954a2.875,2.875,0,0,0-2.392,2.83v.478a.478.478,0,0,0,.478.478h4.784a.478.478,0,0,0,.478-.478v-.478a2.875,2.875,0,0,0-2.392-2.83V18.392h5.263a.478.478,0,0,0,.478-.478V16.478A.478.478,0,0,0,37.183,16Zm-21.05,7.176H12.306a1.914,1.914,0,0,1,3.827,0Zm8.611,0H20.917a1.914,1.914,0,0,1,3.827,0Zm8.611,0H29.529a1.914,1.914,0,1,1,3.827,0ZM36.7,17.435H8.957v-.478H36.7Z" transform="translate(34.066 1583)" fill="#a09f9d"/>
    </g>
  </g>
</svg>
