<svg xmlns="http://www.w3.org/2000/svg" width="56" height="56" viewBox="0 0 56 56">
  <g id="Group_607" data-name="Group 607" transform="translate(-829 -1522)">
    <g id="fireplace" transform="translate(841.572 1536)">
      <g id="Group_432" data-name="Group 432" transform="translate(0 0)">
        <g id="Group_431" data-name="Group 431">
          <path id="Path_270" data-name="Path 270" d="M30.4,42.094H28.033V25.27h.9a.452.452,0,0,0,.452-.452v-2.5H30.4a.452.452,0,0,0,.452-.452V18.3a.452.452,0,0,0-.452-.452H14.1a.452.452,0,0,0,0,.9H29.952V21.41H8.634a.452.452,0,0,0,0,.9H28.485v2.05H2.372v-2.05H6.824a.452.452,0,0,0,0-.9H.9V18.757H12.292a.452.452,0,0,0,0-.9H.452A.452.452,0,0,0,0,18.3v3.558a.452.452,0,0,0,.452.452H1.467v2.5a.452.452,0,0,0,.452.452h.9V42.094H.452A.452.452,0,0,0,0,42.547V46.1a.452.452,0,0,0,.452.452H6.824a.452.452,0,0,0,0-.9H.9V43H12.292a.452.452,0,0,0,0-.9H8.342V29.159H22.515V42.094H14.1a.452.452,0,0,0,0,.9H29.952v2.654H8.634a.452.452,0,0,0,0,.9H30.4a.452.452,0,0,0,.452-.452V42.547A.452.452,0,0,0,30.4,42.094Zm-3.276,0H23.419V28.707a.452.452,0,0,0-.452-.452H7.89a.452.452,0,0,0-.452.452V42.094H3.729V25.27h23.4Z" transform="translate(0 -17.852)" fill="#a09f9d"/>
        </g>
      </g>
      <g id="Group_434" data-name="Group 434" transform="translate(10.69 11.972)">
        <g id="Group_433" data-name="Group 433">
          <path id="Path_271" data-name="Path 271" d="M186.282,221.481a.452.452,0,0,0-.885.135,2.031,2.031,0,0,1-.292,1.2c-1.263-2.09-.669-5.748-.662-5.786a.453.453,0,0,0-.653-.478,5.63,5.63,0,0,0-2.874,4.72,9.467,9.467,0,0,1-.146-1.458A.452.452,0,0,0,180,219.5a3.382,3.382,0,0,0-1.031,3.822,1.593,1.593,0,0,1-.683-.979.453.453,0,0,0-.886.069,7.664,7.664,0,0,0,.244,2.621c1.533,5.482,9.064,4.249,9.206-.524A9.562,9.562,0,0,0,186.282,221.481Zm-.34,3c-.116,3.922-6.83,4.928-7.6-.491a2.485,2.485,0,0,0,1.513.47.453.453,0,0,0,.359-.693,2.462,2.462,0,0,1-.259-2.748c.124.917.435,2.182,1.36,2.274a.452.452,0,0,0,.493-.508c0-.036-.386-3.207,1.625-4.918-.112,1.421-.116,4.044,1.1,5.72a.666.666,0,0,0,.443.268.945.945,0,0,0,.864-.514A5.282,5.282,0,0,1,185.942,224.485Z" transform="translate(-177.371 -216.504)" fill="#a09f9d"/>
        </g>
      </g>
      <g id="Group_436" data-name="Group 436" transform="translate(13.699 17.624)">
        <g id="Group_435" data-name="Group 435">
          <path id="Path_272" data-name="Path 272" d="M230.922,313.031a4.8,4.8,0,0,1-.371-2.155.577.577,0,0,0-1.029-.38,3.937,3.937,0,0,0-.9,2.146.963.963,0,0,0-.519-.177.756.756,0,0,0-.73.567,1.917,1.917,0,0,0,.68,2.043,2.01,2.01,0,0,0,2.767-.214A1.686,1.686,0,0,0,230.922,313.031Zm-2.265,1.371a1.036,1.036,0,0,1-.444-.948c.344.236.417.461.756.461a.58.58,0,0,0,.574-.669,2.485,2.485,0,0,1,.154-1.281c.159,1.266.541,1.491.541,1.936C230.238,314.721,229.04,314.772,228.657,314.4Z" transform="translate(-227.304 -310.277)" fill="#a09f9d"/>
        </g>
      </g>
    </g>
    <path id="Path_194" data-name="Path 194" d="M47.8,8.2A28,28,0,0,0,8.2,47.8,28,28,0,0,0,47.8,8.2Zm-1.16,38.438A26.359,26.359,0,0,1,9.361,9.361,26.359,26.359,0,0,1,46.639,46.639Z" transform="translate(829 1522)" fill="#a09f9d"/>
  </g>
</svg>
