<svg xmlns="http://www.w3.org/2000/svg" width="57.5" height="57.5" viewBox="0 0 57.5 57.5">
  <g id="Group_610" data-name="Group 610" transform="translate(-161 -1618)">
    <g id="Group_437" data-name="Group 437" transform="translate(0 -2891.5)">
      <g id="floor" transform="translate(175.436 4518.825)">
        <g id="Group_378" data-name="Group 378" transform="translate(0.554 4.169)">
          <g id="Group_377" data-name="Group 377">
            <path id="Path_226" data-name="Path 226" d="M69.209,65.107V65.6a1.6,1.6,0,0,1-1.6-1.6h-.977a1.6,1.6,0,0,1-1.6,1.6v.977a1.589,1.589,0,0,1,1.057.4l-4.184,4.184L58.436,67.68l1.6-1.6h2.924v-.977H44.75v7.23h.977v-.286l1.6-1.6L50.8,73.934l-5.074,5.074v-2.5H44.75V93.182H72.824V65.107Zm-2.084.4a2.591,2.591,0,0,0,.579.579,2.592,2.592,0,0,0-.579.579,2.592,2.592,0,0,0-.579-.579A2.592,2.592,0,0,0,67.125,65.506Zm-21.4,5.164V66.084h4.585Zm2.287-.9,3.68-3.68H58.65l-7.158,7.158Zm9.731-1.393,3.478,3.478L53.576,79.5,50.1,76.018Zm2.084,6.253L63.307,78.1l-9.731,9.731L50.1,84.356Zm-14.1,5.765,3.68-3.68,3.478,3.478-7.158,7.158Zm0,11.816V88.727l3.68-3.68,3.478,3.478L49.2,92.2Zm4.86,0,9.243-9.243,3.478,3.478L57.543,92.2Zm8.338,0,7.158-7.158,3.478,3.478L65.88,92.2Zm12.923,0H67.262l4.585-4.585Zm0-5.967-1.6,1.6-3.478-3.478,5.074-5.074Zm0-8.338L64,85.749,60.52,82.271,71.847,70.944Zm0-8.338L64,77.411,60.52,73.934,66.6,67.85a1.6,1.6,0,0,1,.032.319h.977a1.6,1.6,0,0,1,1.6-1.6v-.489h2.638Z" transform="translate(-44.75 -64)" fill="#a09f9d"/>
          </g>
        </g>
        <g id="Group_380" data-name="Group 380" transform="translate(22.928)">
          <g id="Group_379" data-name="Group 379" transform="translate(0)">
            <path id="Path_227" data-name="Path 227" d="M390.823,0h-.977a1.6,1.6,0,0,1-1.6,1.6v.977a1.6,1.6,0,0,1,1.6,1.6h.977a1.6,1.6,0,0,1,1.6-1.6V1.6A1.6,1.6,0,0,1,390.823,0Zm-.489,2.663a2.591,2.591,0,0,0-.579-.579,2.591,2.591,0,0,0,.579-.579,2.591,2.591,0,0,0,.579.579A2.591,2.591,0,0,0,390.334,2.663Z" transform="translate(-388.25)" fill="#a09f9d"/>
          </g>
        </g>
        <g id="Group_382" data-name="Group 382" transform="translate(0 12.506)">
          <g id="Group_381" data-name="Group 381" transform="translate(0)">
            <path id="Path_228" data-name="Path 228" d="M38.823,192h-.977a1.6,1.6,0,0,1-1.6,1.6v.977a1.6,1.6,0,0,1,1.6,1.6h.977a1.6,1.6,0,0,1,1.6-1.6V193.6A1.6,1.6,0,0,1,38.823,192Zm-.489,2.663a2.591,2.591,0,0,0-.579-.579,2.592,2.592,0,0,0,.579-.579,2.592,2.592,0,0,0,.579.579A2.591,2.591,0,0,0,38.334,194.663Z" transform="translate(-36.25 -192)" fill="#a09f9d"/>
          </g>
        </g>
      </g>
      <path id="Path_218" data-name="Path 218" d="M49.079,8.421A28.75,28.75,0,0,0,8.421,49.079,28.75,28.75,0,0,0,49.079,8.421ZM47.888,47.888A27.065,27.065,0,0,1,9.612,9.612,27.065,27.065,0,0,1,47.888,47.888Z" transform="translate(161 4509.5)" fill="#a09f9d"/>
    </g>
  </g>
</svg>
