<svg xmlns="http://www.w3.org/2000/svg" width="57.5" height="57.5" viewBox="0 0 57.5 57.5">
  <g id="Group_611" data-name="Group 611" transform="translate(-829 -1618)">
    <g id="terrace" transform="translate(842.724 1632)">
      <path id="Path_273" data-name="Path 273" d="M29.551,1.921V1H15.276a.46.46,0,0,0-.461.461V5.145a.46.46,0,0,0,.461.461h.461V28.63H1v.921H29.551V28.63H24.025v-2.3h5.526v-.921h-9.21v-.921h9.21v-.921H19.881a.46.46,0,0,0-.461.461v1.842a.46.46,0,0,0,.461.461h1.382v2.3H18.5V5.605H29.551V4.684H15.736V1.921ZM22.183,26.328H23.1v2.3h-.921ZM17.578,5.605V28.63h-.921V5.605Z" transform="translate(-1 -1)" fill="#a09f9d"/>
      <path id="Path_274" data-name="Path 274" d="M14.526,27.708a6.348,6.348,0,0,0-.666-2.823l-.3-.606a.479.479,0,0,0-.824,0l-.3.606a6.343,6.343,0,0,0-.667,2.823c0,.111.013.222.019.332a2.806,2.806,0,0,0-1-.476l-1.21-.3a.46.46,0,0,0-.558.558l.3,1.211a2.809,2.809,0,0,0,2.045,2.045h0l.309.077-.576.288.412.824,1.176-.588v1.1H9.46A.46.46,0,0,0,9,33.234v1.842a.46.46,0,0,0,.461.461h.5l.419,4.191a.461.461,0,0,0,.458.414h4.605a.461.461,0,0,0,.458-.414l.419-4.191h.5a.46.46,0,0,0,.461-.461V33.234a.46.46,0,0,0-.461-.461H13.6v-1.1l1.176.588.412-.824-.576-.288.309-.077h0a2.809,2.809,0,0,0,2.045-2.046l.3-1.21a.46.46,0,0,0-.558-.558l-1.211.3a2.808,2.808,0,0,0-1,.476c.006-.111.02-.221.02-.332Zm.5,11.513H11.259l-.368-3.684H15.4Zm1.338-4.605H9.921v-.921h6.447Zm-3.224-9.088a5.39,5.39,0,0,1,0,4.36,5.39,5.39,0,0,1,0-4.36Zm-2.437,4.157a1.9,1.9,0,0,1-.5-.878l-.116-.466.465.116a1.891,1.891,0,0,1,1.376,1.376l.116.466-.465-.116A1.9,1.9,0,0,1,10.707,29.685Zm5.023-1.228.466-.116-.116.465A1.89,1.89,0,0,1,14.7,30.182l-.465.116.116-.465a1.891,1.891,0,0,1,1.376-1.376Z" transform="translate(-5.316 -13.432)" fill="#a09f9d"/>
      <path id="Path_275" data-name="Path 275" d="M2.842,7.447H8.829a2.3,2.3,0,0,0,0-4.605,2.232,2.232,0,0,0-.6.083A2.734,2.734,0,0,0,5.605,1,2.766,2.766,0,0,0,2.842,3.763a1.842,1.842,0,0,0,0,3.684Zm0-2.763a.918.918,0,0,1,.361.074.461.461,0,0,0,.626-.539,1.791,1.791,0,0,1-.066-.456A1.844,1.844,0,0,1,5.605,1.921,1.825,1.825,0,0,1,7.429,3.607a.46.46,0,0,0,.7.356,1.352,1.352,0,0,1,.7-.2,1.382,1.382,0,0,1,0,2.763H2.842a.921.921,0,0,1,0-1.842Z" transform="translate(-1 -1)" fill="#a09f9d"/>
    </g>
    <path id="Path_218" data-name="Path 218" d="M49.079,8.421A28.75,28.75,0,0,0,8.421,49.079,28.75,28.75,0,0,0,49.079,8.421ZM47.888,47.888A27.065,27.065,0,0,1,9.612,9.612,27.065,27.065,0,0,1,47.888,47.888Z" transform="translate(829 1618)" fill="#a09f9d"/>
  </g>
</svg>
