<svg xmlns="http://www.w3.org/2000/svg" width="57.5" height="57.5" viewBox="0 0 57.5 57.5">
  <g id="Group_612" data-name="Group 612" transform="translate(-495 -1618)">
    <g id="shower" transform="translate(511.647 1632)">
      <g id="Group_384" data-name="Group 384" transform="translate(0)">
        <g id="Group_383" data-name="Group 383">
          <path id="Path_246" data-name="Path 246" d="M75.785,0H53.92a.42.42,0,0,0-.42.42V28.284a.42.42,0,0,0,.42.42H75.785a.42.42,0,0,0,.42-.42V.42A.42.42,0,0,0,75.785,0ZM54.341,2.523H57.7a1.263,1.263,0,0,1,1.261,1.261v.563A2.949,2.949,0,0,0,56.474,6.84H56.3a.42.42,0,1,0,0,.841H62.47a.42.42,0,1,0,0-.841H62.3a2.949,2.949,0,0,0-2.492-2.492V3.784a2.1,2.1,0,0,0-2.1-2.1H54.341V.841H64.432V26.182H54.341Zm5.046,2.635a2.106,2.106,0,0,1,2.06,1.682h-4.12A2.106,2.106,0,0,1,59.387,5.158ZM75.365,27.864H54.341v-.841H75.365Zm0-1.682H65.273V.841H75.365Z" transform="translate(-53.5)" fill="#a09f9d"/>
        </g>
      </g>
      <g id="Group_386" data-name="Group 386" transform="translate(12.614 10.568)">
        <g id="Group_385" data-name="Group 385">
          <path id="Path_247" data-name="Path 247" d="M278.92,188.5a.42.42,0,0,0-.42.42v5.046a.42.42,0,1,0,.841,0V188.92A.42.42,0,0,0,278.92,188.5Z" transform="translate(-278.5 -188.5)" fill="#a09f9d"/>
        </g>
      </g>
      <g id="Group_388" data-name="Group 388" transform="translate(9.251 10.568)">
        <g id="Group_387" data-name="Group 387">
          <path id="Path_248" data-name="Path 248" d="M218.92,188.5a.42.42,0,0,0-.42.42v5.046a.42.42,0,1,0,.841,0V188.92A.42.42,0,0,0,218.92,188.5Z" transform="translate(-218.5 -188.5)" fill="#a09f9d"/>
        </g>
      </g>
      <g id="Group_390" data-name="Group 390" transform="translate(5.466 8.522)">
        <g id="Group_389" data-name="Group 389">
          <path id="Path_249" data-name="Path 249" d="M151.42,152a.42.42,0,0,0-.42.42v.841a.42.42,0,0,0,.841,0v-.841A.42.42,0,0,0,151.42,152Z" transform="translate(-151 -152)" fill="#a09f9d"/>
        </g>
      </g>
      <g id="Group_392" data-name="Group 392" transform="translate(3.784 8.522)">
        <g id="Group_391" data-name="Group 391">
          <path id="Path_250" data-name="Path 250" d="M121.42,152a.42.42,0,0,0-.42.42v.841a.42.42,0,0,0,.841,0v-.841A.42.42,0,0,0,121.42,152Z" transform="translate(-121 -152)" fill="#a09f9d"/>
        </g>
      </g>
      <g id="Group_394" data-name="Group 394" transform="translate(7.148 8.522)">
        <g id="Group_393" data-name="Group 393">
          <path id="Path_251" data-name="Path 251" d="M181.42,152a.42.42,0,0,0-.42.42v.841a.42.42,0,0,0,.841,0v-.841A.42.42,0,0,0,181.42,152Z" transform="translate(-181 -152)" fill="#a09f9d"/>
        </g>
      </g>
      <g id="Group_396" data-name="Group 396" transform="translate(5.466 11.045)">
        <g id="Group_395" data-name="Group 395">
          <path id="Path_252" data-name="Path 252" d="M151.42,197a.42.42,0,0,0-.42.42v.841a.42.42,0,0,0,.841,0v-.841A.42.42,0,0,0,151.42,197Z" transform="translate(-151 -197)" fill="#a09f9d"/>
        </g>
      </g>
      <g id="Group_398" data-name="Group 398" transform="translate(3.784 11.045)">
        <g id="Group_397" data-name="Group 397">
          <path id="Path_253" data-name="Path 253" d="M121.42,197a.42.42,0,0,0-.42.42v.841a.42.42,0,0,0,.841,0v-.841A.42.42,0,0,0,121.42,197Z" transform="translate(-121 -197)" fill="#a09f9d"/>
        </g>
      </g>
      <g id="Group_400" data-name="Group 400" transform="translate(7.148 11.045)">
        <g id="Group_399" data-name="Group 399">
          <path id="Path_254" data-name="Path 254" d="M181.42,197a.42.42,0,0,0-.42.42v.841a.42.42,0,0,0,.841,0v-.841A.42.42,0,0,0,181.42,197Z" transform="translate(-181 -197)" fill="#a09f9d"/>
        </g>
      </g>
      <g id="Group_402" data-name="Group 402" transform="translate(5.466 13.568)">
        <g id="Group_401" data-name="Group 401">
          <path id="Path_255" data-name="Path 255" d="M151.42,242a.42.42,0,0,0-.42.42v.841a.42.42,0,0,0,.841,0v-.841A.42.42,0,0,0,151.42,242Z" transform="translate(-151 -242)" fill="#a09f9d"/>
        </g>
      </g>
      <g id="Group_404" data-name="Group 404" transform="translate(3.784 13.568)">
        <g id="Group_403" data-name="Group 403">
          <path id="Path_256" data-name="Path 256" d="M121.42,242a.42.42,0,0,0-.42.42v.841a.42.42,0,0,0,.841,0v-.841A.42.42,0,0,0,121.42,242Z" transform="translate(-121 -242)" fill="#a09f9d"/>
        </g>
      </g>
      <g id="Group_406" data-name="Group 406" transform="translate(7.148 13.568)">
        <g id="Group_405" data-name="Group 405">
          <path id="Path_257" data-name="Path 257" d="M181.42,242a.42.42,0,0,0-.42.42v.841a.42.42,0,0,0,.841,0v-.841A.42.42,0,0,0,181.42,242Z" transform="translate(-181 -242)" fill="#a09f9d"/>
        </g>
      </g>
      <g id="Group_408" data-name="Group 408" transform="translate(5.466 16.09)">
        <g id="Group_407" data-name="Group 407">
          <path id="Path_258" data-name="Path 258" d="M151.42,287a.42.42,0,0,0-.42.42v.841a.42.42,0,0,0,.841,0v-.841A.42.42,0,0,0,151.42,287Z" transform="translate(-151 -287)" fill="#a09f9d"/>
        </g>
      </g>
      <g id="Group_410" data-name="Group 410" transform="translate(3.784 16.09)">
        <g id="Group_409" data-name="Group 409">
          <path id="Path_259" data-name="Path 259" d="M121.42,287a.42.42,0,0,0-.42.42v.841a.42.42,0,0,0,.841,0v-.841A.42.42,0,0,0,121.42,287Z" transform="translate(-121 -287)" fill="#a09f9d"/>
        </g>
      </g>
      <g id="Group_412" data-name="Group 412" transform="translate(7.148 16.09)">
        <g id="Group_411" data-name="Group 411">
          <path id="Path_260" data-name="Path 260" d="M181.42,287a.42.42,0,0,0-.42.42v.841a.42.42,0,0,0,.841,0v-.841A.42.42,0,0,0,181.42,287Z" transform="translate(-181 -287)" fill="#a09f9d"/>
        </g>
      </g>
      <g id="Group_414" data-name="Group 414" transform="translate(5.466 18.613)">
        <g id="Group_413" data-name="Group 413">
          <path id="Path_261" data-name="Path 261" d="M151.42,332a.42.42,0,0,0-.42.42v.841a.42.42,0,0,0,.841,0v-.841A.42.42,0,0,0,151.42,332Z" transform="translate(-151 -332)" fill="#a09f9d"/>
        </g>
      </g>
      <g id="Group_416" data-name="Group 416" transform="translate(3.784 18.613)">
        <g id="Group_415" data-name="Group 415">
          <path id="Path_262" data-name="Path 262" d="M121.42,332a.42.42,0,0,0-.42.42v.841a.42.42,0,0,0,.841,0v-.841A.42.42,0,0,0,121.42,332Z" transform="translate(-121 -332)" fill="#a09f9d"/>
        </g>
      </g>
      <g id="Group_418" data-name="Group 418" transform="translate(7.148 18.613)">
        <g id="Group_417" data-name="Group 417">
          <path id="Path_263" data-name="Path 263" d="M181.42,332a.42.42,0,0,0-.42.42v.841a.42.42,0,1,0,.841,0v-.841A.42.42,0,0,0,181.42,332Z" transform="translate(-181 -332)" fill="#a09f9d"/>
        </g>
      </g>
      <g id="Group_420" data-name="Group 420" transform="translate(5.466 21.136)">
        <g id="Group_419" data-name="Group 419">
          <path id="Path_264" data-name="Path 264" d="M151.42,377a.42.42,0,0,0-.42.42v.841a.42.42,0,0,0,.841,0v-.841A.42.42,0,0,0,151.42,377Z" transform="translate(-151 -377)" fill="#a09f9d"/>
        </g>
      </g>
      <g id="Group_422" data-name="Group 422" transform="translate(3.784 21.136)">
        <g id="Group_421" data-name="Group 421">
          <path id="Path_265" data-name="Path 265" d="M121.42,377a.42.42,0,0,0-.42.42v.841a.42.42,0,0,0,.841,0v-.841A.42.42,0,0,0,121.42,377Z" transform="translate(-121 -377)" fill="#a09f9d"/>
        </g>
      </g>
      <g id="Group_424" data-name="Group 424" transform="translate(7.148 21.136)">
        <g id="Group_423" data-name="Group 423">
          <path id="Path_266" data-name="Path 266" d="M181.42,377a.42.42,0,0,0-.42.42v.841a.42.42,0,0,0,.841,0v-.841A.42.42,0,0,0,181.42,377Z" transform="translate(-181 -377)" fill="#a09f9d"/>
        </g>
      </g>
      <g id="Group_426" data-name="Group 426" transform="translate(5.466 23.659)">
        <g id="Group_425" data-name="Group 425">
          <path id="Path_267" data-name="Path 267" d="M151.42,422a.42.42,0,0,0-.42.42v.841a.42.42,0,0,0,.841,0v-.841A.42.42,0,0,0,151.42,422Z" transform="translate(-151 -422)" fill="#a09f9d"/>
        </g>
      </g>
      <g id="Group_428" data-name="Group 428" transform="translate(3.784 23.659)">
        <g id="Group_427" data-name="Group 427">
          <path id="Path_268" data-name="Path 268" d="M121.42,422a.42.42,0,0,0-.42.42v.841a.42.42,0,0,0,.841,0v-.841A.42.42,0,0,0,121.42,422Z" transform="translate(-121 -422)" fill="#a09f9d"/>
        </g>
      </g>
      <g id="Group_430" data-name="Group 430" transform="translate(7.148 23.659)">
        <g id="Group_429" data-name="Group 429">
          <path id="Path_269" data-name="Path 269" d="M181.42,422a.42.42,0,0,0-.42.42v.841a.42.42,0,0,0,.841,0v-.841A.42.42,0,0,0,181.42,422Z" transform="translate(-181 -422)" fill="#a09f9d"/>
        </g>
      </g>
    </g>
    <path id="Path_218" data-name="Path 218" d="M49.079,8.421A28.75,28.75,0,0,0,8.421,49.079,28.75,28.75,0,0,0,49.079,8.421ZM47.888,47.888A27.065,27.065,0,0,1,9.612,9.612,27.065,27.065,0,0,1,47.888,47.888Z" transform="translate(495 1618)" fill="#a09f9d"/>
  </g>
</svg>
