<svg xmlns="http://www.w3.org/2000/svg" width="56" height="56" viewBox="0 0 56 56">
  <g id="Group_606" data-name="Group 606" transform="translate(-495 -1522)">
    <g id="brick-wall" transform="translate(508.647 1536)">
      <path id="Path_229" data-name="Path 229" d="M28.141,125.982a1.329,1.329,0,0,0-1.216-.179c-.082.028-.166.059-.248.092a1.567,1.567,0,0,1-1.2-.032,3.893,3.893,0,0,0-1.641-.306,3.7,3.7,0,0,0-1.526.317,1.578,1.578,0,0,1-1.194.054,6.181,6.181,0,0,0-.591-.181.351.351,0,0,0-.172.68,5.456,5.456,0,0,1,.524.16,2.277,2.277,0,0,0,1.723-.074,3.008,3.008,0,0,1,1.248-.255h.024a3.162,3.162,0,0,1,1.325.248,2.273,2.273,0,0,0,1.744.041c.071-.029.144-.055.215-.08a.645.645,0,0,1,.852.612v.65a1.358,1.358,0,0,0-.667-.175H19.371v-5.908a1.255,1.255,0,0,0-.495-1,1.237,1.237,0,0,0-1.08-.217,3.711,3.711,0,0,0-.5.174,1.385,1.385,0,0,1-1.049.024,4.522,4.522,0,0,0-.568-.182.351.351,0,0,0-.17.681,3.807,3.807,0,0,1,.48.154,2.092,2.092,0,0,0,1.584-.032,2.994,2.994,0,0,1,.408-.141.54.54,0,0,1,.472.1.558.558,0,0,1,.22.446v.584a1.358,1.358,0,0,0-.667-.175H14.7v-4.13a1.37,1.37,0,0,0-1.368-1.368H.351a.351.351,0,0,0-.351.351v22a.351.351,0,0,0,.351.351h28a.351.351,0,0,0,.351-.351V127.077A1.332,1.332,0,0,0,28.141,125.982ZM28,128.921v4.13H24.037v-4.8h3.3A.668.668,0,0,1,28,128.921Zm-9.334-5.5v4.13H16.094a.351.351,0,0,0,0,.7h7.243v4.8H14.7V127.9a.351.351,0,0,0-.351-.351H10.036v-4.8H18a.668.668,0,0,1,.667.667Zm-8.984,9.629H5.369v-4.8H14v4.8ZM.7,122.755H9.335v4.8H.7ZM14,117.923v4.13H5.369v-4.8h7.966A.668.668,0,0,1,14,117.923ZM.7,117.256H4.667v4.8H.7Zm0,16.5H3.323a.351.351,0,0,0,0-.7H.7v-4.8H4.667V133.4a.351.351,0,0,0,.351.351H18.669v4.8H10.036v-3.377a.351.351,0,0,0-.7,0v3.377H.7Zm27.3,4.8H19.371v-4.8H28Z" transform="translate(0 -110.547)" fill="#a09f9d"/>
      <path id="Path_230" data-name="Path 230" d="M237.495,147.586a.332.332,0,0,0,.032.061.39.39,0,0,0,.044.053.329.329,0,0,0,.054.044.359.359,0,0,0,.061.032.412.412,0,0,0,.066.02.357.357,0,0,0,.316-.1.324.324,0,0,0,.043-.053.293.293,0,0,0,.032-.061.348.348,0,0,0,.02-.065.362.362,0,0,0,.007-.069.351.351,0,0,0-.352-.35.347.347,0,0,0-.067.007.334.334,0,0,0-.066.02.308.308,0,0,0-.061.032.284.284,0,0,0-.053.044.353.353,0,0,0-.1.247.3.3,0,0,0,.007.069A.333.333,0,0,0,237.495,147.586Z" transform="translate(-225.227 -139.519)" fill="#a09f9d"/>
      <path id="Path_231" data-name="Path 231" d="M237.622,175.743a.362.362,0,0,0,.061.032.342.342,0,0,0,.066.02.35.35,0,0,0,.392-.478.34.34,0,0,0-.032-.061.363.363,0,0,0-.043-.053.354.354,0,0,0-.316-.1.341.341,0,0,0-.066.02.308.308,0,0,0-.061.032.321.321,0,0,0-.054.043.447.447,0,0,0-.044.053.4.4,0,0,0-.032.061.351.351,0,0,0-.019.066.3.3,0,0,0-.007.068.357.357,0,0,0,.1.248A.382.382,0,0,0,237.622,175.743Z" transform="translate(-225.224 -166.074)" fill="#a09f9d"/>
      <path id="Path_232" data-name="Path 232" d="M33.913,271.539a.35.35,0,0,0-.351.35h0a.363.363,0,0,0,.006.069.424.424,0,0,0,.02.065.373.373,0,0,0,.032.061.358.358,0,0,0,.044.053.35.35,0,0,0,.5,0,.31.31,0,0,0,.044-.053.317.317,0,0,0,.032-.061.344.344,0,0,0,.02-.065.363.363,0,0,0,.007-.069.352.352,0,0,0-.351-.35Z" transform="translate(-31.832 -257.541)" fill="#a09f9d"/>
      <path id="Path_233" data-name="Path 233" d="M33.914,299.527a.35.35,0,0,0-.351.35h0a.35.35,0,1,0,.351-.351Z" transform="translate(-31.833 -284.086)" fill="#a09f9d"/>
      <path id="Path_234" data-name="Path 234" d="M241.745,386.245a.356.356,0,0,0-.248.1.437.437,0,0,0-.044.054.394.394,0,0,0-.032.061.342.342,0,0,0-.02.066.359.359,0,0,0-.007.068.35.35,0,0,0,.007.068.339.339,0,0,0,.02.066.365.365,0,0,0,.032.061.379.379,0,0,0,.044.053.351.351,0,1,0,.248-.6Z" transform="translate(-228.95 -366.334)" fill="#a09f9d"/>
      <path id="Path_235" data-name="Path 235" d="M241.745,358.25a.353.353,0,0,0-.248.1.423.423,0,0,0-.044.053.373.373,0,0,0-.032.061.35.35,0,0,0-.02.065.363.363,0,0,0-.007.069.349.349,0,0,0,.419.344.324.324,0,0,0,.066-.02.4.4,0,0,0,.061-.032.365.365,0,0,0,.053-.044.372.372,0,0,0,.044-.053.331.331,0,0,0,.032-.061.349.349,0,0,0,.02-.065.362.362,0,0,0,.007-.068.35.35,0,0,0-.35-.351h0Z" transform="translate(-228.95 -339.782)" fill="#a09f9d"/>
      <path id="Path_236" data-name="Path 236" d="M512.542,358.731a.315.315,0,0,0,.032.061.311.311,0,0,0,.044.052.355.355,0,0,0,.053.044.375.375,0,0,0,.061.032.418.418,0,0,0,.065.02.356.356,0,0,0,.069.006.35.35,0,0,0,.35-.35.367.367,0,0,0-.006-.069.34.34,0,0,0-.02-.065.364.364,0,0,0-.032-.061.353.353,0,0,0-.044-.053.307.307,0,0,0-.053-.044.312.312,0,0,0-.061-.032.344.344,0,0,0-.065-.02.365.365,0,0,0-.138,0,.343.343,0,0,0-.065.02.31.31,0,0,0-.061.032.376.376,0,0,0-.1.1.314.314,0,0,0-.032.061.342.342,0,0,0-.02.2A.349.349,0,0,0,512.542,358.731Z" transform="translate(-486.094 -339.778)" fill="#a09f9d"/>
      <path id="Path_237" data-name="Path 237" d="M398.4,509.937a.289.289,0,0,0-.032-.061.325.325,0,0,0-.043-.053.351.351,0,0,0-.5,0,.379.379,0,0,0-.044.053.33.33,0,0,0-.032.061.349.349,0,0,0-.02.065.34.34,0,0,0,0,.138.376.376,0,0,0,.02.066.4.4,0,0,0,.032.061.368.368,0,0,0,.044.053.349.349,0,0,0,.494,0l0,0a.309.309,0,0,0,.043-.053.343.343,0,0,0,.032-.061.378.378,0,0,0,.02-.066.339.339,0,0,0,0-.138A.345.345,0,0,0,398.4,509.937Z" transform="translate(-377.219 -483.443)" fill="#a09f9d"/>
      <path id="Path_238" data-name="Path 238" d="M214.077,358.259a.343.343,0,0,0-.065.02.327.327,0,0,0-.061.032.321.321,0,0,0-.053.044.358.358,0,0,0-.044.053.375.375,0,0,0-.032.061.346.346,0,0,0-.019.065.339.339,0,0,0,0,.138.345.345,0,0,0,.019.065.38.38,0,0,0,.032.061.361.361,0,0,0,.044.053.354.354,0,0,0,.114.076.339.339,0,0,0,.065.02.373.373,0,0,0,.069.007.35.35,0,0,0,.247-.1.332.332,0,0,0,.076-.114.349.349,0,0,0,.02-.065.362.362,0,0,0,.007-.069.35.35,0,0,0-.1-.247A.354.354,0,0,0,214.077,358.259Z" transform="translate(-202.774 -339.785)" fill="#a09f9d"/>
      <path id="Path_239" data-name="Path 239" d="M29.134,484.3a.317.317,0,0,0-.032-.061.313.313,0,0,0-.044-.053.354.354,0,0,0-.316-.1.344.344,0,0,0-.065.02.331.331,0,0,0-.061.032.327.327,0,0,0-.053.044.35.35,0,0,0,0,.5.322.322,0,0,0,.053.044.331.331,0,0,0,.061.032.344.344,0,0,0,.065.02.366.366,0,0,0,.069.007.358.358,0,0,0,.068-.007.37.37,0,0,0,.066-.02.4.4,0,0,0,.061-.032.382.382,0,0,0,.1-.1.318.318,0,0,0,.032-.061.348.348,0,0,0,.02-.065.34.34,0,0,0,0-.138A.352.352,0,0,0,29.134,484.3Z" transform="translate(-26.993 -459.126)" fill="#a09f9d"/>
      <path id="Path_240" data-name="Path 240" d="M29.131,512.289a.334.334,0,0,0-.032-.061.342.342,0,0,0-.1-.1.329.329,0,0,0-.061-.032.375.375,0,0,0-.066-.02.363.363,0,0,0-.138,0,.339.339,0,0,0-.065.02.284.284,0,0,0-.061.032.323.323,0,0,0-.053.043.369.369,0,0,0-.044.054.4.4,0,0,0-.032.061.447.447,0,0,0-.02.066.361.361,0,0,0-.006.068.355.355,0,0,0,.006.068.411.411,0,0,0,.02.066.364.364,0,0,0,.032.061.328.328,0,0,0,.044.054.38.38,0,0,0,.053.044.327.327,0,0,0,.061.032.339.339,0,0,0,.065.019.311.311,0,0,0,.069.007.353.353,0,0,0,.247-.1.286.286,0,0,0,.044-.054.31.31,0,0,0,.032-.061.34.34,0,0,0,.02-.066.35.35,0,0,0,.007-.068.354.354,0,0,0-.027-.134Z" transform="translate(-26.99 -485.675)" fill="#a09f9d"/>
      <path id="Path_241" data-name="Path 241" d="M56.338,512.081a.355.355,0,0,0-.126.053.374.374,0,0,0-.053.043.351.351,0,0,0,0,.5.435.435,0,0,0,.053.044.385.385,0,0,0,.061.031.33.33,0,0,0,.066.02.367.367,0,0,0,.068.007.35.35,0,1,0,0-.7A.354.354,0,0,0,56.338,512.081Z" transform="translate(-53.165 -485.676)" fill="#a09f9d"/>
      <path id="Path_242" data-name="Path 242" d="M515.516,56.38a.35.35,0,1,0,.248.1A.356.356,0,0,0,515.516,56.38Z" transform="translate(-488.609 -53.474)" fill="#a09f9d"/>
      <path id="Path_243" data-name="Path 243" d="M515.516,28.392a.35.35,0,1,0,.248.1A.35.35,0,0,0,515.516,28.392Z" transform="translate(-488.609 -26.928)" fill="#a09f9d"/>
      <path id="Path_244" data-name="Path 244" d="M488.226,28.593a.311.311,0,0,0-.033-.061.3.3,0,0,0-.044-.053.348.348,0,0,0-.492,0l0,0a.353.353,0,0,0-.044.053.371.371,0,0,0-.032.061.349.349,0,0,0-.019.065.344.344,0,0,0,0,.138.385.385,0,0,0,.019.066.4.4,0,0,0,.032.061.356.356,0,0,0,.044.053.349.349,0,0,0,.248.1.358.358,0,0,0,.068-.006.376.376,0,0,0,.066-.02.337.337,0,0,0,.061-.032.38.38,0,0,0,.1-.1.334.334,0,0,0,.032-.061.375.375,0,0,0,.02-.066.342.342,0,0,0-.02-.2Z" transform="translate(-462.418 -26.913)" fill="#a09f9d"/>
      <path id="Path_245" data-name="Path 245" d="M370.815,0h-7.3a1.37,1.37,0,0,0-1.368,1.368V4.833A1.37,1.37,0,0,0,363.516,6.2h7.3a1.37,1.37,0,0,0,1.368-1.368V1.369A1.37,1.37,0,0,0,370.815,0Zm.667,4.832a.668.668,0,0,1-.667.667h-7.3a.668.668,0,0,1-.667-.667V1.369A.668.668,0,0,1,363.516.7h7.3a.668.668,0,0,1,.668.667V4.833Z" transform="translate(-343.479 -0.001)" fill="#a09f9d"/>
    </g>
    <path id="Path_194" data-name="Path 194" d="M47.8,8.2A28,28,0,0,0,8.2,47.8,28,28,0,0,0,47.8,8.2Zm-1.16,38.438A26.359,26.359,0,0,1,9.361,9.361,26.359,26.359,0,0,1,46.639,46.639Z" transform="translate(495 1522)" fill="#a09f9d"/>
  </g>
</svg>
