<svg xmlns="http://www.w3.org/2000/svg" width="81.387" height="82.711" viewBox="0 0 81.387 82.711">
  <g id="_042-abstract_shape" data-name="042-abstract shape" transform="translate(0 0)">
    <g id="Group_18" data-name="Group 18" transform="translate(0)">
      <path id="Path_115" data-name="Path 115" d="M129.1,9.989a2.249,2.249,0,0,0-2.2-1.685h-16a1.212,1.212,0,1,0,0,2.423H126.35L98.235,26.967a2.613,2.613,0,0,1-2.607,0L67.513,10.727H87.5a9.515,9.515,0,1,0,0-2.423H66.957a2.274,2.274,0,0,0-1.137,4.243l28.6,16.518a5.043,5.043,0,0,0,5.031,0l28.6-16.519A2.249,2.249,0,0,0,129.1,9.989ZM96.932,16.608a7.1,7.1,0,0,1-6.987-5.881h13.973A7.1,7.1,0,0,1,96.932,16.608Zm0-14.185A7.1,7.1,0,0,1,103.919,8.3H89.945A7.1,7.1,0,0,1,96.932,2.423Z" transform="translate(-54.894 0)" fill="#ddd5c9"/>
      <path id="Path_116" data-name="Path 116" d="M40.741,125.19,11.777,108.457A2.275,2.275,0,0,0,8.6,111.444l10.57,21.14a15.658,15.658,0,1,0,2.78.142L10.993,110.8l28.537,16.485a2.612,2.612,0,0,1,1.3,2.256V170.48l-5.109-10.217a1.212,1.212,0,1,0-2.167,1.084l5.392,10.783a2.233,2.233,0,0,0,2.011,1.26,2.373,2.373,0,0,0,.546-.064,2.238,2.238,0,0,0,1.751-2.213V129.544A5.04,5.04,0,0,0,40.741,125.19ZM6.749,150.672,22.2,135.224a13.127,13.127,0,0,1,3.559,1.212L7.962,154.231a13.128,13.128,0,0,1-1.212-3.559Zm12.224-15.651L6.546,147.448A13.257,13.257,0,0,1,18.974,135.021Zm13.8,10.792L17.339,161.25a13.139,13.139,0,0,1-3.562-1.209l17.79-17.79A13.131,13.131,0,0,1,32.776,145.813ZM20.566,161.45l12.41-12.41A13.257,13.257,0,0,1,20.566,161.45Zm9.672-21.3L11.679,158.712a13.357,13.357,0,0,1-2.387-2.385l18.561-18.561a13.356,13.356,0,0,1,2.385,2.387Z" transform="translate(-4.097 -90.679)" fill="#ddd5c9"/>
      <path id="Path_117" data-name="Path 117" d="M316.327,108.77a2.26,2.26,0,0,0-2.7-.313l-28.967,16.732a5.043,5.043,0,0,0-2.514,4.355v22.012a1.212,1.212,0,0,0,2.423,0V129.543a2.613,2.613,0,0,1,1.3-2.257L314.412,110.8l-29.839,59.677V157.23a1.212,1.212,0,0,0-2.423,0v13.881a2.238,2.238,0,0,0,1.752,2.213,2.372,2.372,0,0,0,.545.064,2.232,2.232,0,0,0,2.011-1.261L316.8,111.442a2.26,2.26,0,0,0-.475-2.673Z" transform="translate(-237.233 -90.678)" fill="#ddd5c9"/>
      <path id="Path_118" data-name="Path 118" d="M446.337,401.377a5.411,5.411,0,1,0,5.411,5.411A5.417,5.417,0,0,0,446.337,401.377Zm0,8.4a2.987,2.987,0,1,1,2.988-2.987A2.991,2.991,0,0,1,446.337,409.775Z" transform="translate(-370.36 -336.538)" fill="#ddd5c9"/>
    </g>
  </g>
</svg>
