<svg id="_048-abstract_shape" data-name="048-abstract shape" xmlns="http://www.w3.org/2000/svg" width="82.709" height="82.709" viewBox="0 0 82.709 82.709">
  <path id="Path_141" data-name="Path 141" d="M82.709,41.354c0-3.514-7.16-5.114-13.813-5.114-.649,0-1.3.015-1.953.046l.951-2.938a4.237,4.237,0,0,0-2.112-5.1l-2.75-1.405c.482-.439.955-.89,1.414-1.348h0c.608-.608,1.2-1.24,1.772-1.886a30.315,30.315,0,0,1,4.329,8.734,1.212,1.212,0,1,0,2.316-.714,32.738,32.738,0,0,0-5.054-9.948c2.932-3.815,4.637-7.719,2.789-9.569-1.467-1.466-4.063-.568-5.983.444A25.644,25.644,0,0,0,61.027,14.9,32.83,32.83,0,0,0,46.149,8.736C45.524,3.965,43.969,0,41.355,0s-4.17,3.965-4.794,8.736A32.83,32.83,0,0,0,21.682,14.9,25.645,25.645,0,0,0,18.1,12.556c-1.92-1.012-4.516-1.91-5.983-.443s-.568,4.063.444,5.982A25.629,25.629,0,0,0,14.9,21.682,32.832,32.832,0,0,0,8.736,36.56C3.966,37.185,0,38.74,0,41.354s3.966,4.17,8.736,4.794A32.832,32.832,0,0,0,14.9,61.027c-2.932,3.815-4.638,7.72-2.789,9.569a2.781,2.781,0,0,0,2.05.769c2.033,0,4.8-1.468,7.518-3.558a32.83,32.83,0,0,0,14.879,6.166c.625,4.77,2.179,8.736,4.794,8.736s4.17-3.965,4.794-8.736a32.832,32.832,0,0,0,14.878-6.165,25.658,25.658,0,0,0,3.587,2.345,9.109,9.109,0,0,0,3.932,1.214A2.786,2.786,0,0,0,70.6,70.6c1.466-1.467.568-4.063-.444-5.982a25.641,25.641,0,0,0-2.344-3.587,32.833,32.833,0,0,0,6.165-14.878c4.77-.625,8.736-2.18,8.736-4.795ZM68.9,38.664a30.184,30.184,0,0,1,8.552,1.089c2.344.726,2.838,1.483,2.838,1.6s-.493.876-2.838,1.6A30.172,30.172,0,0,1,68.9,44.045c-.94,0-1.862-.033-2.754-.1a6.145,6.145,0,0,1,0-5.188C67.034,38.7,67.956,38.664,68.9,38.664Zm-5.521,4.6.126.39a22.1,22.1,0,0,1-3.157-.7c-2.344-.726-2.837-1.483-2.837-1.6s.493-.876,2.837-1.6a22.1,22.1,0,0,1,3.157-.7A6.643,6.643,0,0,0,63.375,43.268Zm1.3-12.861a1.824,1.824,0,0,1,.909,2.2l-1.261,3.9c-4.994.579-9.244,2.15-9.244,4.857s4.25,4.278,9.244,4.857l1.261,3.9a1.824,1.824,0,0,1-.909,2.2l-3.645,1.863a26.453,26.453,0,0,0-3.989-2.659c-1.92-1.012-4.516-1.91-5.983-.443s-.568,4.063.444,5.982a26.46,26.46,0,0,0,2.659,3.989L52.3,64.679a1.824,1.824,0,0,1-2.2.909l-3.9-1.261c-.579-4.994-2.15-9.244-4.857-9.244-1.086,0-2.624.714-3.777,4.113a1.212,1.212,0,1,0,2.295.779c.692-2.04,1.376-2.469,1.482-2.469s.876.493,1.6,2.837a22.1,22.1,0,0,1,.7,3.157,6.644,6.644,0,0,0-4.217-.126L32.6,65.589a1.824,1.824,0,0,1-2.2-.909l-1.863-3.646c3.122-3.94,5.017-8.057,3.1-9.971s-6.031-.02-9.971,3.1L18.03,52.3a1.824,1.824,0,0,1-.909-2.2l1.261-3.9c4.994-.579,9.244-2.15,9.244-4.857s-4.25-4.278-9.244-4.857L17.12,32.6a1.824,1.824,0,0,1,.909-2.2l3.645-1.862A26.461,26.461,0,0,0,25.664,31.2,9.109,9.109,0,0,0,29.6,32.417a2.787,2.787,0,0,0,2.051-.771c1.467-1.467.568-4.063-.444-5.982a26.446,26.446,0,0,0-2.658-3.989l1.862-3.645a1.823,1.823,0,0,1,1.626-1,1.845,1.845,0,0,1,.57.091l3.9,1.261c.579,4.994,2.15,9.244,4.857,9.244s4.278-4.25,4.857-9.244l3.9-1.261a1.824,1.824,0,0,1,2.2.909l1.862,3.645a26.446,26.446,0,0,0-2.659,3.989c-1.012,1.92-1.91,4.516-.444,5.982a2.782,2.782,0,0,0,2.05.769c2.134,0,5.073-1.616,7.92-3.871ZM55.573,58.279l-.186.365a22.086,22.086,0,0,1-1.737-2.728c-1.144-2.171-.958-3.055-.874-3.139a.617.617,0,0,1,.35-.065,6.519,6.519,0,0,1,2.789.939,22.1,22.1,0,0,1,2.728,1.737,6.612,6.612,0,0,0-3.071,2.892Zm-28.436,0a6.619,6.619,0,0,0-3.071-2.893,22.112,22.112,0,0,1,2.728-1.737,6.517,6.517,0,0,1,2.789-.939.616.616,0,0,1,.35.065c.084.084.271.968-.874,3.139a22.109,22.109,0,0,1-1.736,2.728Zm-7.8-18.838-.126-.39a22.093,22.093,0,0,1,3.157.7c2.344.726,2.838,1.483,2.838,1.6s-.493.876-2.838,1.6a22.1,22.1,0,0,1-3.157.7A6.644,6.644,0,0,0,19.334,39.441Zm7.8-15.011.186-.365a22.1,22.1,0,0,1,1.736,2.728c1.144,2.171.958,3.055.874,3.139s-.968.271-3.139-.874a22.092,22.092,0,0,1-2.728-1.737,6.615,6.615,0,0,0,3.071-2.893Zm11.915-5.223a6.717,6.717,0,0,0,4.606,0,22.123,22.123,0,0,1-.7,3.157c-.726,2.344-1.483,2.837-1.6,2.837s-.876-.493-1.6-2.837A22.1,22.1,0,0,1,39.051,19.208ZM55.573,24.43a6.618,6.618,0,0,0,3.071,2.893,22.091,22.091,0,0,1-2.728,1.736c-2.171,1.145-3.055.958-3.139.874s-.271-.968.874-3.139a22.125,22.125,0,0,1,1.737-2.728ZM65.744,14.7c1.537-.735,2.368-1.079,3.139-.874.084.084.271.968-.874,3.14a33.474,33.474,0,0,1-7.293,8.7,6.108,6.108,0,0,1-3.668-3.669c.586-.675,1.214-1.35,1.879-2.016A31.116,31.116,0,0,1,65.744,14.7Zm-6.649,1.795c-.632.558-1.262,1.15-1.881,1.769q-.7.7-1.349,1.413l-1.4-2.749a4.238,4.238,0,0,0-5.1-2.112l-2.938.951c.031-.651.046-1.3.046-1.953,0-.858-.027-1.725-.081-2.584a30.4,30.4,0,0,1,12.707,5.266ZM39.753,5.261c.726-2.344,1.483-2.837,1.6-2.837s.876.493,1.6,2.837a30.178,30.178,0,0,1,1.089,8.552c0,.94-.033,1.862-.1,2.754a6.145,6.145,0,0,1-5.188,0c-.063-.892-.1-1.813-.1-2.754a30.184,30.184,0,0,1,1.089-8.552Zm-3.431,5.968c-.054.859-.081,1.725-.081,2.584,0,.649.016,1.3.046,1.953l-2.938-.951a4.237,4.237,0,0,0-5.1,2.112l-1.4,2.749q-.649-.712-1.349-1.413c-.619-.619-1.249-1.211-1.881-1.769a30.4,30.4,0,0,1,12.707-5.266Zm-22.5,2.6a.617.617,0,0,1,.35-.065,6.517,6.517,0,0,1,2.789.939,33.487,33.487,0,0,1,8.7,7.293,6.108,6.108,0,0,1-3.669,3.669,33.67,33.67,0,0,1-7.293-8.7c-1.144-2.171-.958-3.055-.874-3.139Zm2.669,9.788c.558.632,1.15,1.262,1.769,1.881q.7.7,1.413,1.349l-2.749,1.4a4.237,4.237,0,0,0-2.112,5.1l.951,2.938c-.651-.031-1.3-.046-1.953-.046-.858,0-1.725.027-2.584.081a30.4,30.4,0,0,1,5.265-12.707ZM2.423,41.354c0-.119.493-.876,2.838-1.6a30.179,30.179,0,0,1,8.552-1.089c.94,0,1.862.033,2.754.1a6.146,6.146,0,0,1,0,5.188c-.892.063-1.813.1-2.754.1a30.184,30.184,0,0,1-8.552-1.089c-2.344-.726-2.838-1.483-2.838-1.6Zm8.806,5.033c.859.054,1.725.081,2.584.081.649,0,1.3-.015,1.953-.046l-.951,2.938a4.237,4.237,0,0,0,2.112,5.1l2.75,1.4c-.482.439-.955.89-1.414,1.348-.606.606-1.2,1.238-1.768,1.882a30.4,30.4,0,0,1-5.266-12.708Zm2.6,22.5c-.084-.084-.271-.968.874-3.14a33.473,33.473,0,0,1,7.293-8.7,6.109,6.109,0,0,1,3.669,3.669,33.678,33.678,0,0,1-8.7,7.293C14.794,69.153,13.91,68.967,13.826,68.883Zm9.787-2.669c.645-.569,1.276-1.162,1.883-1.768.459-.459.91-.932,1.349-1.414l1.405,2.75A4.235,4.235,0,0,0,32.026,68.1a4.29,4.29,0,0,0,1.323-.21l2.938-.951c-.03.644-.046,1.3-.046,1.953,0,.858.027,1.725.081,2.584a30.406,30.406,0,0,1-12.709-5.267ZM42.957,77.448c-.726,2.344-1.483,2.837-1.6,2.837s-.876-.493-1.6-2.837A30.178,30.178,0,0,1,38.664,68.9c0-.933.033-1.855.1-2.754a6.144,6.144,0,0,1,5.188,0c.063.892.1,1.813.1,2.754a30.185,30.185,0,0,1-1.089,8.552Zm3.431-5.968c.054-.859.081-1.725.081-2.584,0-.649-.016-1.3-.046-1.953l2.938.951a4.237,4.237,0,0,0,5.1-2.112l1.4-2.749q.648.712,1.349,1.413c.619.619,1.249,1.211,1.881,1.769A30.4,30.4,0,0,1,46.388,71.48Zm22.5-2.6c-.084.084-.968.271-3.139-.874a33.474,33.474,0,0,1-8.7-7.293,6.108,6.108,0,0,1,3.669-3.669,33.672,33.672,0,0,1,7.293,8.7c1.144,2.171.958,3.055.874,3.139Zm-2.668-9.788c-.558-.632-1.15-1.262-1.769-1.882q-.7-.7-1.413-1.349l2.749-1.4a4.237,4.237,0,0,0,2.112-5.1l-.951-2.938a42.669,42.669,0,0,0,4.537-.035A30.4,30.4,0,0,1,66.215,59.095Z" transform="translate(0 0)" fill="#ddd5c9"/>
  <path id="Path_142" data-name="Path 142" d="M221.92,213.553a3.958,3.958,0,0,0-1.973-4.764,1.541,1.541,0,0,1-.676-.676,3.958,3.958,0,0,0-4.763-1.973,1.541,1.541,0,0,1-.956,0,3.959,3.959,0,0,0-4.763,1.973,1.54,1.54,0,0,1-.676.676,3.957,3.957,0,0,0-1.973,4.763,1.543,1.543,0,0,1,0,.956,3.958,3.958,0,0,0,1.973,4.764,1.541,1.541,0,0,1,.676.676,3.958,3.958,0,0,0,4.763,1.973,1.54,1.54,0,0,1,.956,0,4.01,4.01,0,0,0,1.235.2,3.956,3.956,0,0,0,3.528-2.169,1.541,1.541,0,0,1,.676-.676,3.958,3.958,0,0,0,1.973-4.763A1.541,1.541,0,0,1,221.92,213.553Zm-2.306,1.7a1.544,1.544,0,0,1-.77,1.859,3.947,3.947,0,0,0-1.731,1.731,1.545,1.545,0,0,1-1.859.77,3.953,3.953,0,0,0-2.448,0,1.545,1.545,0,0,1-1.859-.77,3.949,3.949,0,0,0-1.731-1.731,1.545,1.545,0,0,1-.77-1.859,3.95,3.95,0,0,0,0-2.448,1.545,1.545,0,0,1,.77-1.859,3.95,3.95,0,0,0,1.731-1.731,1.544,1.544,0,0,1,1.377-.847,1.56,1.56,0,0,1,.482.077,3.954,3.954,0,0,0,2.448,0h0a1.544,1.544,0,0,1,1.859.77,3.947,3.947,0,0,0,1.731,1.731,1.545,1.545,0,0,1,.77,1.859A3.954,3.954,0,0,0,219.615,215.255Z" transform="translate(-172.676 -172.676)" fill="#ddd5c9"/>
</svg>
